<svg id="Layer_1" data-name="Layer 1" xmlns="http://www.w3.org/2000/svg" viewBox="0 0 425.2 425.2"><defs><style>.cls-1{fill:#1f262a;}.cls-2{fill:#396bb4;}</style></defs><title>Atlas Logos</title><path class="cls-1" d="M84.09,180.08h5.19a6.76,6.76,0,0,1,6.4,4.59L117.77,250h-9.42S91.22,195.45,89,187.39h0C86.81,195.49,69.5,250,69.5,250h-9Z"/><path class="cls-1" d="M147,187.61H125.84v-4.15a3.39,3.39,0,0,1,3.38-3.38H177v.78a6.75,6.75,0,0,1-6.75,6.75h-11a3.38,3.38,0,0,0-3.38,3.38v59H147Z"/><path class="cls-1" d="M200.16,180.08h5.51a3.38,3.38,0,0,1,3.38,3.38v59h30.5v.78a6.75,6.75,0,0,1-6.76,6.75H200.16Z"/><path class="cls-1" d="M277.24,180.08h5.19a6.77,6.77,0,0,1,6.4,4.59L310.92,250H301.5s-17.17-54.52-19.42-62.58h0c-2.16,8.1-19.43,62.58-19.43,62.58h-9Z"/><path class="cls-1" d="M355.43,198.15v-7.87c0-2.13.1-3.78-9.08-3.78-8.8,0-9.08,1.65-9.08,3.78v6.51a9.92,9.92,0,0,0,3.32,7.73c4.6,4.18,14.83,11.34,19.22,15.73,3.38,3.38,3.39,12.17,3.39,12.17v8.64c0,4.76-4.26,8.64-9.58,8.64H338.76c-5.11-.19-9.15-4-9.26-8.64v-7a3.94,3.94,0,0,1,2.13-3.79c.64-.19,3.73-1.45,5.64-2.23v11.84c0,2,0,3.69,9.08,3.69s9.07-1.65,9.07-3.78V232a14,14,0,0,0-3.3-9.22c-4.23-4.52-14.83-11.25-19.21-15.63-3.73-3.74-3.41-10.78-3.41-10.78v-7c0-4.76,4.26-9,9.58-9h14.86a9.45,9.45,0,0,1,9.27,9V192a4,4,0,0,1-2.13,3.79C360.44,196.11,357.45,197.37,355.43,198.15Z"/><circle class="cls-2" cx="89.11" cy="243.4" r="6.57"/><circle class="cls-2" cx="282.06" cy="243.4" r="6.57"/></svg>